<svg width="341" height="63" viewBox="0 0 341 63" fill="none" xmlns="http://www.w3.org/2000/svg">
<rect width="340.571" height="63" />
<path d="M80.005 31.0134L88.7929 39.6062V51.0148L80 42.4148L80.005 31.0134Z" fill="#8d670b"/>
<path d="M108.566 31.0134L99.7786 39.6062V51.0148L108.571 42.4148L108.566 31.0134Z" fill="#8d670b"/>
<path d="M103.755 24.6112V20.5627C103.755 8.47911 84.8164 8.47911 84.8164 20.5627V24.6191L80 31.0134V42.4148L89.1021 31.0077V36.047L94.2851 41.1157L99.4693 36.047V31.0077L108.571 42.4148L108.571 31.0077L103.755 24.6112ZM97.2686 24.6191H91.3029V20.3855C91.3029 16.1191 97.2686 16.1191 97.2686 20.3855V24.6191Z" fill="url(#paint0_linear_1814_196)"/>
<path d="M177.059 45L170.265 26.28H173.922L178.897 40.4587L183.871 26.28H187.529L180.734 45H177.059ZM198.277 45.52C196.417 45.52 194.782 45.1156 193.372 44.3067C191.974 43.4862 190.882 42.348 190.096 40.892C189.322 39.4244 188.935 37.7258 188.935 35.796C188.935 33.7507 189.316 31.9769 190.079 30.4747C190.853 28.9724 191.928 27.8111 193.303 26.9907C194.678 26.1702 196.278 25.76 198.104 25.76C200.011 25.76 201.634 26.2049 202.975 27.0947C204.315 27.9729 205.315 29.2267 205.973 30.856C206.644 32.4853 206.909 34.4209 206.771 36.6627H203.148V35.3453C203.125 33.1729 202.709 31.5667 201.9 30.5267C201.103 29.4867 199.884 28.9667 198.243 28.9667C196.428 28.9667 195.065 29.5387 194.152 30.6827C193.239 31.8267 192.783 33.4791 192.783 35.64C192.783 37.6969 193.239 39.2916 194.152 40.424C195.065 41.5449 196.382 42.1053 198.104 42.1053C199.236 42.1053 200.213 41.8511 201.033 41.3427C201.865 40.8227 202.512 40.0831 202.975 39.124L206.528 40.2507C205.8 41.9262 204.696 43.2262 203.217 44.1507C201.738 45.0636 200.092 45.52 198.277 45.52ZM191.604 36.6627V33.8373H204.968V36.6627H191.604ZM210.66 45V26.28H213.884V30.8213L213.433 30.232C213.664 29.6311 213.964 29.0822 214.334 28.5853C214.704 28.0769 215.132 27.6609 215.617 27.3373C216.091 26.9907 216.616 26.7249 217.194 26.54C217.784 26.3436 218.384 26.228 218.997 26.1933C219.609 26.1471 220.199 26.176 220.765 26.28V29.6773C220.152 29.5156 219.471 29.4693 218.72 29.5387C217.98 29.608 217.298 29.8449 216.674 30.2493C216.085 30.6307 215.617 31.0929 215.27 31.636C214.935 32.1791 214.692 32.7858 214.542 33.456C214.392 34.1147 214.317 34.8138 214.317 35.5533V45H210.66ZM230.547 45.5027C228.271 45.5027 226.416 45 224.983 43.9947C223.55 42.9893 222.672 41.5738 222.349 39.748L226.058 39.176C226.289 40.1467 226.821 40.9151 227.653 41.4813C228.496 42.036 229.542 42.3133 230.79 42.3133C231.922 42.3133 232.806 42.0822 233.442 41.62C234.089 41.1578 234.413 40.5222 234.413 39.7133C234.413 39.2396 234.297 38.8582 234.066 38.5693C233.846 38.2689 233.378 37.9858 232.662 37.72C231.946 37.4542 230.854 37.1249 229.386 36.732C227.78 36.316 226.503 35.8711 225.555 35.3973C224.619 34.912 223.949 34.3516 223.545 33.716C223.152 33.0689 222.955 32.2889 222.955 31.376C222.955 30.2436 223.256 29.2556 223.857 28.412C224.458 27.5684 225.301 26.9156 226.387 26.4533C227.485 25.9911 228.768 25.76 230.235 25.76C231.668 25.76 232.945 25.9853 234.066 26.436C235.187 26.8867 236.094 27.528 236.787 28.36C237.481 29.1804 237.897 30.1453 238.035 31.2547L234.326 31.9307C234.199 31.0293 233.777 30.3187 233.061 29.7987C232.344 29.2787 231.414 28.9956 230.27 28.9493C229.172 28.9031 228.282 29.088 227.601 29.504C226.919 29.9084 226.578 30.4689 226.578 31.1853C226.578 31.6013 226.705 31.9538 226.959 32.2427C227.225 32.5316 227.734 32.8089 228.485 33.0747C229.236 33.3404 230.345 33.6582 231.813 34.028C233.384 34.4324 234.632 34.8831 235.557 35.38C236.481 35.8653 237.14 36.4489 237.533 37.1307C237.937 37.8009 238.139 38.6156 238.139 39.5747C238.139 41.4236 237.463 42.8738 236.111 43.9253C234.771 44.9769 232.916 45.5027 230.547 45.5027ZM250.277 45.52C248.417 45.52 246.782 45.1156 245.372 44.3067C243.974 43.4862 242.882 42.348 242.096 40.892C241.322 39.4244 240.935 37.7258 240.935 35.796C240.935 33.7507 241.316 31.9769 242.079 30.4747C242.853 28.9724 243.928 27.8111 245.303 26.9907C246.678 26.1702 248.278 25.76 250.104 25.76C252.011 25.76 253.634 26.2049 254.975 27.0947C256.315 27.9729 257.315 29.2267 257.973 30.856C258.644 32.4853 258.909 34.4209 258.771 36.6627H255.148V35.3453C255.125 33.1729 254.709 31.5667 253.9 30.5267C253.103 29.4867 251.884 28.9667 250.243 28.9667C248.428 28.9667 247.065 29.5387 246.152 30.6827C245.239 31.8267 244.783 33.4791 244.783 35.64C244.783 37.6969 245.239 39.2916 246.152 40.424C247.065 41.5449 248.382 42.1053 250.104 42.1053C251.236 42.1053 252.213 41.8511 253.033 41.3427C253.865 40.8227 254.512 40.0831 254.975 39.124L258.528 40.2507C257.8 41.9262 256.696 43.2262 255.217 44.1507C253.738 45.0636 252.092 45.52 250.277 45.52ZM243.604 36.6627V33.8373H256.968V36.6627H243.604Z" fill="#0A1018"/>
<path d="M137.983 45.468C136.747 45.468 135.586 45.2369 134.499 44.7747C133.413 44.3009 132.471 43.6307 131.674 42.764C130.888 41.8973 130.316 40.8747 129.958 39.696L133.459 38.7253C133.795 39.8 134.378 40.6262 135.21 41.204C136.042 41.7702 136.967 42.0476 137.983 42.036C138.896 42.0244 139.699 41.8107 140.393 41.3947C141.086 40.9787 141.629 40.4182 142.022 39.7133C142.415 38.9969 142.611 38.1764 142.611 37.252C142.611 35.8653 142.178 34.7213 141.311 33.82C140.456 32.9187 139.335 32.468 137.949 32.468C137.556 32.468 137.151 32.5258 136.735 32.6413C136.331 32.7569 135.95 32.9071 135.591 33.092L133.893 30.232L142.698 22.4493L143.079 23.4893H130.946V20.04H145.957V23.4893L138.642 30.5267L138.607 29.348C140.179 29.348 141.543 29.7004 142.698 30.4053C143.854 31.0987 144.743 32.0462 145.367 33.248C146.003 34.4382 146.321 35.7729 146.321 37.252C146.321 38.8467 145.945 40.2622 145.194 41.4987C144.455 42.7351 143.455 43.7058 142.195 44.4107C140.947 45.1156 139.543 45.468 137.983 45.468ZM158.273 45.52C156.528 45.52 155.02 45.0867 153.749 44.22C152.489 43.3533 151.513 42.1747 150.819 40.684C150.138 39.1818 149.797 37.4947 149.797 35.6227C149.797 33.7391 150.143 32.0578 150.837 30.5787C151.53 29.088 152.512 27.9151 153.783 27.06C155.066 26.1933 156.586 25.76 158.342 25.76C160.11 25.76 161.595 26.1933 162.797 27.06C164.01 27.9151 164.923 29.088 165.535 30.5787C166.159 32.0693 166.471 33.7507 166.471 35.6227C166.471 37.4947 166.159 39.176 165.535 40.6667C164.911 42.1573 163.993 43.3418 162.779 44.22C161.566 45.0867 160.064 45.52 158.273 45.52ZM158.775 42.244C159.966 42.244 160.936 41.9609 161.687 41.3947C162.438 40.8284 162.987 40.0484 163.334 39.0547C163.681 38.0609 163.854 36.9169 163.854 35.6227C163.854 34.3284 163.675 33.1844 163.317 32.1907C162.97 31.1969 162.427 30.4227 161.687 29.868C160.959 29.3133 160.029 29.036 158.897 29.036C157.695 29.036 156.707 29.3307 155.933 29.92C155.158 30.5093 154.581 31.3009 154.199 32.2947C153.83 33.2884 153.645 34.3978 153.645 35.6227C153.645 36.8591 153.83 37.98 154.199 38.9853C154.581 39.9791 155.147 40.7707 155.898 41.36C156.661 41.9493 157.62 42.244 158.775 42.244ZM163.854 45V31.532H163.438V20.04H167.078V45H163.854Z" fill="url(#paint1_linear_1814_196)"/>
<defs>
<linearGradient id="paint0_linear_1814_196" x1="94.2857" y1="11.5" x2="94.2857" y2="51.0148" gradientUnits="userSpaceOnUse">
<stop stop-color="#E8AA0B"/>
<stop offset="1" stop-color="#BA7C00"/>
</linearGradient>
<linearGradient id="paint1_linear_1814_196" x1="129" y1="8" x2="153.5" y2="55" gradientUnits="userSpaceOnUse">
<stop stop-color="#E8AA0B"/>
<stop offset="0.729167" stop-color="#BA7C00"/>
<stop offset="1" stop-color="#A47402"/>
</linearGradient>
</defs>
</svg>
